<svg width="1200" height="720" viewBox="0 0 1200 720" fill="none" xmlns="http://www.w3.org/2000/svg">
  <defs>
    <linearGradient id="bg" x1="80" y1="46" x2="1114" y2="672" gradientUnits="userSpaceOnUse">
      <stop stop-color="#FFF6EA"/>
      <stop offset="0.5" stop-color="#F7FBFF"/>
      <stop offset="1" stop-color="#EDF8F2"/>
    </linearGradient>
    <linearGradient id="line" x1="332" y1="136" x2="915" y2="523" gradientUnits="userSpaceOnUse">
      <stop stop-color="#38BDF8"/>
      <stop offset="1" stop-color="#F59E0B"/>
    </linearGradient>
    <filter id="shadow" x="128" y="74" width="944" height="572" filterUnits="userSpaceOnUse" color-interpolation-filters="sRGB">
      <feFlood flood-opacity="0" result="BackgroundImageFix"/>
      <feColorMatrix in="SourceAlpha" type="matrix" values="0 0 0 0 0 0 0 0 0 0 0 0 0 0 0 0 0 0 127 0" result="hardAlpha"/>
      <feOffset dy="24"/>
      <feGaussianBlur stdDeviation="24"/>
      <feColorMatrix type="matrix" values="0 0 0 0 0.0588235 0 0 0 0 0.0901961 0 0 0 0 0.164706 0 0 0 0.12 0"/>
      <feBlend mode="normal" in2="BackgroundImageFix" result="effect1_dropShadow_0_1"/>
      <feBlend mode="normal" in="SourceGraphic" in2="effect1_dropShadow_0_1" result="shape"/>
    </filter>
  </defs>

  <rect width="1200" height="720" rx="40" fill="url(#bg)"/>
  <circle cx="1020" cy="116" r="152" fill="#99F6E4" fill-opacity="0.45"/>
  <circle cx="174" cy="592" r="132" fill="#FDE68A" fill-opacity="0.42"/>
  <circle cx="898" cy="566" r="120" fill="#BFDBFE" fill-opacity="0.44"/>

  <path d="M314 156C463 130 572 165 675 244C783 327 882 356 1008 323" stroke="url(#line)" stroke-width="4" stroke-linecap="round" opacity="0.42"/>
  <path d="M240 533C371 469 454 432 584 437C699 442 790 486 909 544" stroke="url(#line)" stroke-width="3" stroke-linecap="round" opacity="0.3"/>

  <g filter="url(#shadow)">
    <rect x="176" y="98" width="848" height="476" rx="38" fill="#FFFFFF" fill-opacity="0.92"/>

    <rect x="212" y="134" width="360" height="56" rx="20" fill="#F8FAFC"/>
    <rect x="236" y="152" width="112" height="20" rx="10" fill="#0F172A"/>
    <rect x="360" y="154" width="182" height="16" rx="8" fill="#CBD5E1"/>

    <rect x="212" y="214" width="284" height="232" rx="30" fill="#FFF8EF"/>
    <rect x="238" y="246" width="122" height="18" rx="9" fill="#0F172A"/>
    <rect x="238" y="280" width="214" height="14" rx="7" fill="#94A3B8"/>
    <rect x="238" y="306" width="188" height="14" rx="7" fill="#CBD5E1"/>
    <rect x="238" y="352" width="102" height="36" rx="18" fill="#0F172A"/>
    <rect x="352" y="352" width="112" height="36" rx="18" fill="#FFFFFF"/>
    <rect x="238" y="408" width="90" height="12" rx="6" fill="#94A3B8"/>
    <rect x="336" y="408" width="100" height="12" rx="6" fill="#CBD5E1"/>

    <rect x="530" y="214" width="458" height="164" rx="30" fill="#F8FAFC"/>
    <rect x="558" y="244" width="146" height="18" rx="9" fill="#0F172A"/>
    <rect x="558" y="282" width="196" height="14" rx="7" fill="#94A3B8"/>
    <rect x="558" y="308" width="238" height="14" rx="7" fill="#CBD5E1"/>
    <rect x="818" y="244" width="128" height="94" rx="24" fill="#ECFDF5"/>
    <rect x="842" y="272" width="64" height="14" rx="7" fill="#0F766E"/>
    <rect x="842" y="298" width="82" height="10" rx="5" fill="#5EEAD4"/>

    <rect x="530" y="398" width="214" height="136" rx="28" fill="#F8FAFC"/>
    <rect x="558" y="426" width="112" height="16" rx="8" fill="#0F172A"/>
    <rect x="558" y="458" width="146" height="12" rx="6" fill="#94A3B8"/>
    <rect x="558" y="480" width="128" height="12" rx="6" fill="#CBD5E1"/>

    <rect x="770" y="398" width="218" height="136" rx="28" fill="#FFF5E6"/>
    <rect x="798" y="426" width="122" height="16" rx="8" fill="#0F172A"/>
    <rect x="798" y="458" width="132" height="12" rx="6" fill="#94A3B8"/>
    <rect x="798" y="480" width="110" height="12" rx="6" fill="#CBD5E1"/>
  </g>
</svg>
